<svg width="256" height="256" viewBox="0 0 256 256" fill="none" xmlns="http://www.w3.org/2000/svg">
<path d="M101.837 101.837C99.1912 99.1912 97.8683 97.8683 98.0043 96.0398C98.1403 94.2112 99.5413 93.1748 102.343 91.1019C111.311 84.468 130.341 72.7907 161.234 65.0675C180.353 60.2877 194.424 57.5273 204.299 55.9331C211.571 54.7591 215.207 54.1722 216.533 56.7636C217.858 59.3551 215.173 62.0403 209.803 67.4106L144.263 132.95C141.597 135.616 140.263 136.95 138.607 136.95C136.95 136.95 135.616 135.616 132.95 132.95L101.837 101.837Z" fill="url(#paint0_linear_219_2)"/>
<path d="M154.163 154.163C156.809 156.809 158.132 158.132 157.996 159.96C157.86 161.789 156.459 162.825 153.657 164.898C144.689 171.532 125.659 183.209 94.766 190.933C75.647 195.712 61.5762 198.473 51.7007 200.067C44.4286 201.241 40.7925 201.828 39.4672 199.236C38.1419 196.645 40.8271 193.96 46.1974 188.589L111.737 123.05C114.403 120.384 115.737 119.05 117.393 119.05C119.05 119.05 120.384 120.384 123.05 123.05L154.163 154.163Z" fill="url(#paint1_linear_219_2)"/>
<circle cx="128" cy="128" r="45" transform="rotate(-45 128 128)" fill="white"/>
<defs>
<linearGradient id="paint0_linear_219_2" x1="139.459" y1="137.886" x2="223.459" y2="53.8858" gradientUnits="userSpaceOnUse">
<stop offset="0.5" stop-color="white"/>
<stop offset="1" stop-color="white" stop-opacity="0.25"/>
</linearGradient>
<linearGradient id="paint1_linear_219_2" x1="116.541" y1="118.114" x2="32.5406" y2="202.114" gradientUnits="userSpaceOnUse">
<stop offset="0.5" stop-color="white"/>
<stop offset="1" stop-color="white" stop-opacity="0.25"/>
</linearGradient>
</defs>
</svg>
